<svg width="210" height="65" viewBox="0 0 210 65" fill="none" xmlns="http://www.w3.org/2000/svg">
<g clip-path="url(#clip0)">
<path d="M204.167 0H5.83333C2.61167 0 0 2.61167 0 5.83333V58.3333C0 61.555 2.61167 64.1667 5.83333 64.1667H204.167C207.388 64.1667 210 61.555 210 58.3333V5.83333C210 2.61167 207.388 0 204.167 0Z" fill="#232323"/>
<path d="M47.0518 31.9958C47.0695 30.621 47.4347 29.2731 48.1133 28.0773C48.792 26.8816 49.7621 25.8769 50.9333 25.1568C50.1889 24.0946 49.2072 23.2206 48.066 22.6041C46.9248 21.9877 45.6556 21.6457 44.3591 21.6055C41.593 21.315 38.912 23.261 37.5026 23.261C36.0665 23.261 33.8965 21.6347 31.5596 21.6825C30.048 21.7308 28.5747 22.1701 27.2835 22.9575C25.9923 23.7449 24.9272 24.8536 24.1921 26.1753C21.0071 31.6902 23.3825 39.7962 26.4345 44.2587C27.9616 46.4415 29.7455 48.8798 32.08 48.7935C34.3643 48.699 35.2183 47.3363 37.9751 47.3363C40.7075 47.3363 41.5078 48.7935 43.8901 48.7363C46.3401 48.6967 47.886 46.5442 49.3595 44.3403C50.4565 42.7849 51.3007 41.0658 51.8608 39.2467C50.4366 38.6442 49.2212 37.6358 48.3662 36.3473C47.5112 35.0587 47.0545 33.5469 47.053 32.0005L47.0518 31.9958Z" fill="white"/>
<path d="M42.5531 18.6712C43.89 17.0667 44.5487 15.0043 44.3895 12.9219C42.3476 13.1366 40.4615 14.1126 39.1068 15.6554C38.4432 16.4087 37.9348 17.2856 37.6105 18.2357C37.2861 19.1858 37.1524 20.1905 37.2168 21.1924C38.2383 21.2029 39.2489 20.9815 40.1725 20.5447C41.096 20.108 41.9084 19.4674 42.5485 18.6712H42.5531Z" fill="white"/>
<path d="M75.9315 43.2599H68.1358L66.2691 48.7888H62.9675L70.3525 28.3359H73.779L81.164 48.7888H77.8016L75.9315 43.2599ZM68.9431 40.7084H75.1265L72.0803 31.7368H71.9951L68.9431 40.7084Z" fill="white"/>
<path d="M97.1076 41.3337C97.1076 45.9677 94.6273 48.945 90.8846 48.945C89.9364 48.9948 88.9934 48.7764 88.1635 48.3151C87.3337 47.8537 86.6505 47.168 86.1923 46.3364H86.1211V53.7225H83.061V33.8764H86.0243V36.3567H86.0803C86.5595 35.529 87.2541 34.8467 88.0902 34.3824C88.9264 33.9181 89.8727 33.6892 90.8286 33.72C94.6133 33.72 97.1076 36.7125 97.1076 41.3337ZM93.9576 41.3337C93.9576 38.3144 92.3978 36.3299 90.0166 36.3299C87.6833 36.3299 86.1048 38.3564 86.1048 41.3337C86.1048 44.3379 87.6775 46.3504 90.0166 46.3504C92.3978 46.3504 93.9576 44.3799 93.9576 41.3337Z" fill="white"/>
<path d="M113.52 41.3337C113.52 45.9677 111.04 48.945 107.297 48.945C106.349 48.9948 105.406 48.7764 104.576 48.3151C103.746 47.8537 103.063 47.168 102.605 46.3364H102.535V53.7225H99.4783V33.8764H102.442V36.3567H102.498C102.977 35.529 103.671 34.8467 104.508 34.3824C105.344 33.9181 106.29 33.6892 107.246 33.72C111.028 33.72 113.52 36.7125 113.52 41.3337ZM110.37 41.3337C110.37 38.3144 108.81 36.3299 106.429 36.3299C104.096 36.3299 102.517 38.3564 102.517 41.3337C102.517 44.3379 104.09 46.3504 106.429 46.3504C108.81 46.3504 110.37 44.3799 110.37 41.3337Z" fill="white"/>
<path d="M124.369 43.0896C124.595 45.1184 126.566 46.4496 129.259 46.4496C131.838 46.4496 133.692 45.1172 133.692 43.2891C133.692 41.7012 132.572 40.7504 129.921 40.0994L127.274 39.4612C123.519 38.5536 121.774 36.7977 121.774 33.9476C121.774 30.4184 124.85 27.9976 129.217 27.9976C133.533 27.9976 136.501 30.4219 136.602 33.9476H133.511C133.326 31.9059 131.644 30.6739 129.173 30.6739C126.702 30.6739 125.02 31.9199 125.02 33.7352C125.02 35.1807 126.098 36.0324 128.734 36.6834L130.988 37.2364C135.188 38.2292 136.928 39.9197 136.928 42.9064C136.928 46.7331 133.88 49.1294 129.032 49.1294C124.496 49.1294 121.434 46.7891 121.237 43.0896H124.369Z" fill="white"/>
<path d="M143.533 30.3472V33.8763H146.369V36.2972H143.533V44.5175C143.533 45.795 144.101 46.3842 145.347 46.3842C145.684 46.3782 146.02 46.3544 146.354 46.313V48.7222C145.793 48.8267 145.224 48.874 144.654 48.8633C141.635 48.8633 140.454 47.7293 140.454 44.8372V36.2972H138.29V33.8763H140.457V30.3472H143.533Z" fill="white"/>
<path d="M148.012 41.3339C148.012 36.6415 150.775 33.6934 155.084 33.6934C159.392 33.6934 162.157 36.6415 162.157 41.3339C162.157 46.0262 159.422 48.9744 155.084 48.9744C150.746 48.9744 148.012 46.039 148.012 41.3339ZM159.039 41.3339C159.039 38.115 157.564 36.2157 155.084 36.2157C152.604 36.2157 151.13 38.1302 151.13 41.3339C151.13 44.5655 152.604 46.4509 155.084 46.4509C157.564 46.4509 159.039 44.5655 159.039 41.3339Z" fill="white"/>
<path d="M164.681 33.8765H167.598V36.4151H167.669C167.866 35.6226 168.331 34.9223 168.984 34.4317C169.637 33.9412 170.439 33.6903 171.255 33.7213C171.608 33.7208 171.961 33.7599 172.305 33.838V36.6975C171.86 36.5612 171.395 36.4985 170.93 36.512C170.485 36.494 170.042 36.5724 169.63 36.7419C169.219 36.9114 168.849 37.1679 168.546 37.4939C168.243 37.8198 168.014 38.2075 167.875 38.6303C167.736 39.0531 167.69 39.5009 167.74 39.9431V48.7876H164.681V33.8765Z" fill="white"/>
<path d="M186.419 44.409C186.008 47.1157 183.371 48.9742 180.003 48.9742C175.665 48.9742 172.972 46.068 172.972 41.4048C172.972 36.7417 175.679 33.6943 179.874 33.6943C184 33.6943 186.594 36.5282 186.594 41.0443V42.0943H176.062V42.2798C176.013 42.8286 176.082 43.3813 176.264 43.9014C176.445 44.4215 176.735 44.8971 177.114 45.2965C177.494 45.6959 177.954 46.0101 178.464 46.2182C178.974 46.4262 179.522 46.5233 180.073 46.5032C180.796 46.5708 181.523 46.4029 182.143 46.0245C182.764 45.6461 183.246 45.0775 183.517 44.4032L186.419 44.409ZM176.072 39.957H183.527C183.555 39.4636 183.48 38.9698 183.308 38.5066C183.135 38.0435 182.869 37.621 182.525 37.2656C182.182 36.9103 181.769 36.6297 181.312 36.4416C180.855 36.2534 180.364 36.1618 179.87 36.1723C179.371 36.1694 178.877 36.2652 178.416 36.4542C177.955 36.6432 177.536 36.9217 177.183 37.2735C176.83 37.6254 176.55 38.0437 176.359 38.5042C176.169 38.9648 176.071 39.4586 176.072 39.957Z" fill="white"/>
<path d="M68.5593 12.9396C69.2011 12.8936 69.845 12.9906 70.4448 13.2235C71.0445 13.4565 71.5851 13.8197 72.0275 14.2869C72.4699 14.7541 72.8031 15.3136 73.0031 15.9251C73.2031 16.5367 73.2649 17.185 73.184 17.8233C73.184 20.9628 71.4865 22.7676 68.5593 22.7676H65.0091V12.9396H68.5593ZM66.5363 21.3781H68.389C68.8476 21.4056 69.3065 21.3304 69.7324 21.1581C70.1583 20.9858 70.5404 20.7207 70.8509 20.382C71.1614 20.0434 71.3924 19.6398 71.5272 19.2006C71.662 18.7613 71.6971 18.2976 71.63 17.8431C71.6919 17.3905 71.653 16.9298 71.516 16.494C71.379 16.0582 71.1474 15.658 70.8377 15.3222C70.528 14.9864 70.1478 14.7233 69.7245 14.5516C69.3012 14.3799 68.8451 14.3039 68.389 14.3291H66.5351L66.5363 21.3781Z" fill="white"/>
<path d="M74.9083 19.0551C74.8648 18.5692 74.923 18.0795 75.0791 17.6173C75.2352 17.1551 75.4859 16.7304 75.8151 16.3704C76.1443 16.0103 76.545 15.7228 76.9914 15.5261C77.4379 15.3294 77.9204 15.2278 78.4083 15.2278C78.8962 15.2278 79.3787 15.3294 79.8252 15.5261C80.2716 15.7228 80.6723 16.0103 81.0015 16.3704C81.3307 16.7304 81.5814 17.1551 81.7375 17.6173C81.8936 18.0795 81.9518 18.5692 81.9083 19.0551C81.9518 19.5411 81.8936 20.0308 81.7375 20.493C81.5814 20.9552 81.3307 21.3799 81.0015 21.7399C80.6723 22.0999 80.2716 22.3875 79.8252 22.5842C79.3787 22.7809 78.8962 22.8825 78.4083 22.8825C77.9204 22.8825 77.4379 22.7809 76.9914 22.5842C76.545 22.3875 76.1443 22.0999 75.8151 21.7399C75.4859 21.3799 75.2352 20.9552 75.0791 20.493C74.923 20.0308 74.8648 19.5411 74.9083 19.0551ZM80.3975 19.0551C80.3975 17.4475 79.6753 16.5071 78.4083 16.5071C77.1413 16.5071 76.425 17.4475 76.425 19.0551C76.425 20.6628 77.1413 21.609 78.4083 21.609C79.6753 21.609 80.3975 20.6698 80.3975 19.0551Z" fill="white"/>
<path d="M91.202 22.7676H89.6853L88.15 17.3052H88.0333L86.5073 22.7676H85.0046L82.9606 15.3511H84.4458L85.7746 21.0106H85.8843L87.4091 15.3511H88.8091L90.334 21.0106H90.4506L91.7725 15.3511H93.2366L91.202 22.7676Z" fill="white"/>
<path d="M94.9575 15.3497H96.3668V16.5281H96.4765C96.6617 16.1039 96.9751 15.7483 97.3726 15.5113C97.7701 15.2742 98.2319 15.1676 98.6931 15.2062C99.0539 15.1793 99.4161 15.2338 99.753 15.3657C100.09 15.4977 100.393 15.7037 100.639 15.9685C100.886 16.2334 101.069 16.5502 101.177 16.8957C101.284 17.2412 101.313 17.6063 101.26 17.9642V22.7651H99.7945V18.3317C99.7945 17.1394 99.2765 16.5467 98.1938 16.5467C97.9488 16.5353 97.7042 16.5769 97.4767 16.6689C97.2493 16.7608 97.0445 16.9008 96.8762 17.0794C96.708 17.2579 96.5804 17.4707 96.5021 17.7032C96.4239 17.9357 96.3968 18.1823 96.4228 18.4262V22.7674H94.9575V15.3497Z" fill="white"/>
<path d="M103.588 12.4553H105.053V22.7675H103.588V12.4553Z" fill="white"/>
<path d="M107.087 19.0551C107.044 18.5692 107.102 18.0795 107.258 17.6173C107.414 17.1551 107.665 16.7304 107.994 16.3704C108.323 16.0103 108.724 15.7228 109.17 15.5261C109.617 15.3294 110.099 15.2278 110.587 15.2278C111.075 15.2278 111.558 15.3294 112.004 15.5261C112.451 15.7228 112.851 16.0103 113.181 16.3704C113.51 16.7304 113.76 17.1551 113.917 17.6173C114.073 18.0795 114.131 18.5692 114.087 19.0551C114.131 19.5411 114.073 20.0308 113.917 20.493C113.76 20.9552 113.51 21.3799 113.181 21.7399C112.851 22.0999 112.451 22.3875 112.004 22.5842C111.558 22.7809 111.075 22.8825 110.587 22.8825C110.099 22.8825 109.617 22.7809 109.17 22.5842C108.724 22.3875 108.323 22.0999 107.994 21.7399C107.665 21.3799 107.414 20.9552 107.258 20.493C107.102 20.0308 107.044 19.5411 107.087 19.0551ZM112.576 19.0551C112.576 17.4475 111.854 16.5071 110.587 16.5071C109.32 16.5071 108.604 17.4475 108.604 19.0551C108.604 20.6628 109.32 21.609 110.587 21.609C111.854 21.609 112.576 20.6698 112.576 19.0551Z" fill="white"/>
<path d="M115.623 20.6699C115.623 19.3353 116.617 18.5699 118.381 18.4533L120.39 18.3366V17.6961C120.39 16.9133 119.872 16.4699 118.873 16.4699C118.056 16.4699 117.489 16.7698 117.327 17.2948H115.91C116.059 16.0208 117.257 15.2041 118.943 15.2041C120.803 15.2041 121.851 16.1293 121.851 17.6961V22.7641H120.44V21.7223H120.323C120.088 22.0964 119.759 22.4016 119.367 22.6066C118.976 22.8116 118.537 22.909 118.096 22.8889C117.785 22.9214 117.47 22.8883 117.173 22.7918C116.875 22.6953 116.601 22.5376 116.368 22.3288C116.136 22.1199 115.949 21.8647 115.821 21.5794C115.692 21.2941 115.625 20.9851 115.624 20.6723L115.623 20.6699ZM120.39 20.0364V19.4169L118.579 19.5336C117.558 19.6024 117.094 19.9489 117.094 20.6034C117.094 21.2579 117.677 21.6593 118.469 21.6593C118.703 21.6826 118.938 21.6589 119.162 21.5895C119.386 21.52 119.594 21.4063 119.773 21.255C119.952 21.1038 120.099 20.918 120.205 20.7089C120.311 20.4998 120.374 20.2715 120.39 20.0376V20.0364Z" fill="white"/>
<path d="M123.772 19.0552C123.772 16.7113 124.977 15.2273 126.851 15.2273C127.314 15.2067 127.774 15.318 128.176 15.5483C128.579 15.7786 128.907 16.1184 129.124 16.5282H129.234V12.4553H130.698V22.7675H129.298V21.6008H129.182C128.948 22.0091 128.607 22.3456 128.196 22.5737C127.784 22.8018 127.318 22.9128 126.848 22.8947C124.964 22.89 123.772 21.4048 123.772 19.0552ZM125.288 19.0552C125.288 20.6278 126.03 21.5752 127.272 21.5752C128.513 21.5752 129.268 20.615 129.268 19.0622C129.268 17.5093 128.498 16.5422 127.272 16.5422C126.046 16.5422 125.288 17.4953 125.288 19.0552Z" fill="white"/>
<path d="M136.753 19.0551C136.71 18.5692 136.768 18.0795 136.924 17.6173C137.08 17.1551 137.331 16.7304 137.66 16.3704C137.989 16.0103 138.39 15.7228 138.836 15.5261C139.283 15.3294 139.765 15.2278 140.253 15.2278C140.741 15.2278 141.224 15.3294 141.67 15.5261C142.117 15.7228 142.517 16.0103 142.847 16.3704C143.176 16.7304 143.426 17.1551 143.583 17.6173C143.739 18.0795 143.797 18.5692 143.753 19.0551C143.797 19.5411 143.739 20.0308 143.583 20.493C143.426 20.9552 143.176 21.3799 142.847 21.7399C142.517 22.0999 142.117 22.3875 141.67 22.5842C141.224 22.7809 140.741 22.8825 140.253 22.8825C139.765 22.8825 139.283 22.7809 138.836 22.5842C138.39 22.3875 137.989 22.0999 137.66 21.7399C137.331 21.3799 137.08 20.9552 136.924 20.493C136.768 20.0308 136.71 19.5411 136.753 19.0551ZM142.242 19.0551C142.242 17.4475 141.52 16.5071 140.253 16.5071C138.986 16.5071 138.27 17.4475 138.27 19.0551C138.27 20.6628 138.986 21.609 140.253 21.609C141.52 21.609 142.244 20.6698 142.244 19.0551H142.242Z" fill="white"/>
<path d="M145.712 15.3497H147.121V16.5281H147.231C147.416 16.1039 147.73 15.7483 148.127 15.5113C148.525 15.2742 148.987 15.1676 149.448 15.2062C149.809 15.1793 150.171 15.2338 150.508 15.3657C150.844 15.4977 151.147 15.7037 151.394 15.9685C151.64 16.2334 151.824 16.5502 151.931 16.8957C152.039 17.2412 152.067 17.6063 152.014 17.9642V22.7651H150.548V18.3317C150.548 17.1394 150.03 16.5467 148.947 16.5467C148.702 16.5353 148.458 16.5769 148.23 16.6689C148.003 16.7608 147.798 16.9008 147.63 17.0794C147.462 17.2579 147.334 17.4707 147.256 17.7032C147.177 17.9357 147.15 18.1823 147.176 18.4262V22.7674H145.712V15.3497Z" fill="white"/>
<path d="M160.283 13.5042V15.3848H161.889V16.618H160.283V20.4318C160.283 21.2088 160.602 21.5483 161.333 21.5483C161.519 21.5477 161.705 21.5364 161.89 21.5145V22.7337C161.628 22.7806 161.361 22.8056 161.095 22.8083C159.461 22.8083 158.818 22.2355 158.818 20.8063V16.618H157.64V15.3837H158.817V13.5042H160.283Z" fill="white"/>
<path d="M163.883 12.4553H165.334V16.5387H165.451C165.646 16.1112 165.968 15.7544 166.374 15.517C166.779 15.2795 167.248 15.1731 167.717 15.2122C168.076 15.1926 168.434 15.2526 168.768 15.3877C169.101 15.5229 169.4 15.7299 169.644 15.994C169.888 16.2581 170.07 16.5728 170.179 16.9156C170.287 17.2584 170.318 17.6209 170.27 17.9772V22.7605H168.805V18.34C168.805 17.1558 168.253 16.555 167.22 16.555C166.968 16.5344 166.715 16.5691 166.478 16.6566C166.242 16.744 166.027 16.8821 165.849 17.0613C165.671 17.2404 165.535 17.4562 165.449 17.6936C165.363 17.931 165.331 18.1843 165.353 18.4357V22.7675H163.883V12.4553Z" fill="white"/>
<path d="M178.806 20.7642C178.607 21.4421 178.176 22.0284 177.588 22.4206C177.001 22.8128 176.294 22.986 175.592 22.9097C175.103 22.9224 174.618 22.8287 174.169 22.6351C173.72 22.4414 173.319 22.1525 172.993 21.7883C172.667 21.4242 172.425 20.9935 172.282 20.5262C172.139 20.0588 172.1 19.566 172.166 19.0819C172.101 18.5962 172.141 18.1023 172.284 17.6334C172.426 17.1646 172.668 16.7318 172.992 16.3644C173.316 15.9971 173.716 15.7036 174.163 15.504C174.611 15.3044 175.096 15.2032 175.586 15.2074C177.65 15.2074 178.894 16.6167 178.894 18.9407V19.4517H173.657V19.5334C173.634 19.8056 173.669 20.0795 173.758 20.3377C173.847 20.5959 173.989 20.8326 174.175 21.0326C174.361 21.2326 174.587 21.3916 174.838 21.4993C175.089 21.6069 175.359 21.661 175.632 21.6579C175.983 21.6998 176.337 21.6366 176.651 21.4764C176.965 21.3163 177.225 21.0663 177.396 20.7584L178.806 20.7642ZM173.657 18.3737H177.403C177.422 18.1248 177.388 17.8747 177.304 17.6396C177.22 17.4045 177.088 17.1896 176.916 17.0087C176.744 16.8277 176.536 16.6847 176.306 16.5889C176.075 16.493 175.827 16.4465 175.578 16.4522C175.324 16.4491 175.073 16.4967 174.839 16.5921C174.604 16.6876 174.391 16.829 174.212 17.0081C174.033 17.1872 173.892 17.4003 173.797 17.6348C173.701 17.8693 173.654 18.1206 173.657 18.3737Z" fill="white"/>
</g>
<defs>
<clipPath id="clip0">
<rect width="210" height="64.1667" fill="white"/>
</clipPath>
</defs>
</svg>
