<svg width="42" height="52" viewBox="0 0 42 52" fill="none" xmlns="http://www.w3.org/2000/svg">
<path d="M31.1047 9.33337H3.39534C2.07243 9.33337 1 10.599 1 12.1601V48.1733C1 49.7344 2.07243 51 3.39534 51H31.1047C32.4276 51 33.5 49.7344 33.5 48.1733V12.1601C33.5 10.599 32.4276 9.33337 31.1047 9.33337Z" fill="#43D3AB" stroke="#43D3AB" stroke-width="2"/>
<path d="M8.50336 6.06558V4.86251C8.46382 3.88509 8.78107 2.93034 9.38585 2.20668C9.99064 1.48302 10.8338 1.04922 11.7314 1H37.7687C38.6663 1.04922 39.5095 1.48302 40.1143 2.20668C40.7191 2.93034 41.0363 3.88509 40.9968 4.86251V36.0264C41.0363 37.0038 40.7191 37.9585 40.1143 38.6822C39.5095 39.4059 38.6663 39.8397 37.7687 39.8889H36.654" stroke="#43D3AB" stroke-width="2"/>
<line x1="8.50006" y1="19.4445" x2="26.0001" y2="19.4445" stroke="white" stroke-width="2"/>
<line x1="8.50006" y1="27.7778" x2="26.0001" y2="27.7778" stroke="white" stroke-width="2"/>
<line x1="8.50006" y1="36.1112" x2="26.0001" y2="36.1112" stroke="white" stroke-width="2"/>
</svg>
