<svg width="27" height="26" viewBox="0 0 27 26" fill="none" xmlns="http://www.w3.org/2000/svg">
<path d="M26.1607 13.0779C26.1602 10.5783 25.4436 8.13118 24.0955 6.02622C22.7475 3.92125 20.8246 2.24661 18.5544 1.20053C16.2842 0.154461 13.7618 -0.219235 11.2859 0.123685C8.80988 0.466605 6.48401 1.51178 4.58358 3.13548C2.68315 4.75918 1.28775 6.89341 0.562572 9.28552C-0.162608 11.6776 -0.187198 14.2274 0.491712 16.6331C1.17062 19.0387 2.5246 21.1994 4.39336 22.8595C6.26212 24.5196 8.56741 25.6094 11.0363 26V16.8592H7.71334V13.0779H11.0363V10.196C11.0363 6.91806 12.9866 5.1073 15.9765 5.1073C16.9565 5.12098 17.9343 5.20622 18.9019 5.36234V8.57729H17.2517C16.9707 8.54006 16.6849 8.56649 16.4155 8.65464C16.1461 8.74278 15.9 8.89038 15.6954 9.08652C15.4907 9.28265 15.3328 9.52229 15.2334 9.78771C15.1339 10.0531 15.0953 10.3375 15.1206 10.6198V13.0779H18.7481L18.1683 16.8592H15.1244V26C18.201 25.5123 21.0027 23.943 23.0257 21.5744C25.0487 19.2057 26.1603 16.1929 26.1607 13.0779Z" fill="white"/>
</svg>
