<svg width="42" height="49" viewBox="0 0 42 49" fill="none" xmlns="http://www.w3.org/2000/svg">
<path d="M28 28V13.2448C33.5134 15.8709 37.3333 21.4975 37.3333 28H42C42 18.874 36.148 11.0905 28 8.2012V0H23.3333V7.13036C21.8224 6.96251 20.2835 6.95084 18.6667 7.13036V0H14V8.2012C-1.44496 13.678 -4.97809 33.9859 7.81698 44.3333H0V49H42V44.3333H21C11.9936 44.3333 4.66667 37.0062 4.66667 28C4.66667 21.4975 8.48664 15.8709 14 13.2448V28H18.6667V11.834C20.2186 11.611 21.7787 11.6107 23.3333 11.834V28H28Z" fill="#43D3AB"/>
</svg>
