<svg width="210" height="65" viewBox="0 0 210 65" fill="none" xmlns="http://www.w3.org/2000/svg">
<g clip-path="url(#clip0)">
<path d="M204.167 0H5.83333C2.61167 0 0 2.61167 0 5.83333V58.3333C0 61.555 2.61167 64.1667 5.83333 64.1667H204.167C207.388 64.1667 210 61.555 210 58.3333V5.83333C210 2.61167 207.388 0 204.167 0Z" fill="#232323"/>
<path d="M110.528 20.9872C109.87 21.0026 109.217 20.8807 108.609 20.6292C108.001 20.3777 107.453 20.0021 106.999 19.5265C106.537 19.0565 106.173 18.4994 105.928 17.8875C105.683 17.2757 105.563 16.6213 105.573 15.9624C105.557 15.3032 105.675 14.6476 105.92 14.0355C106.165 13.4234 106.532 12.8675 106.999 12.4017C107.452 11.926 107.999 11.5503 108.606 11.2987C109.213 11.0472 109.866 10.9253 110.523 10.941C111.18 10.929 111.833 11.0525 112.44 11.3038C113.047 11.5551 113.596 11.9289 114.052 12.4017C114.966 13.3609 115.476 14.6351 115.476 15.96C115.476 17.285 114.966 18.5592 114.052 19.5184C113.601 19.9967 113.054 20.3747 112.446 20.6278C111.839 20.8808 111.185 21.0033 110.528 20.9872ZM68.6853 20.9872C68.028 20.997 67.3755 20.8745 66.7666 20.627C66.1577 20.3795 65.6049 20.012 65.141 19.5463C64.4272 18.8469 63.9386 17.9502 63.7379 16.9713C63.5371 15.9923 63.6334 14.9757 64.0142 14.0518C64.395 13.1279 65.043 12.3387 65.8753 11.7855C66.7075 11.2323 67.6859 10.9403 68.6853 10.9468C69.3676 10.9453 70.043 11.0851 70.6687 11.3575C71.2484 11.5937 71.7646 11.9625 72.176 12.4344L72.2693 12.551L71.2192 13.5812L71.1107 13.4529C70.8131 13.1016 70.4382 12.8241 70.0154 12.6419C69.5926 12.4598 69.1333 12.378 68.6736 12.4029C68.2229 12.3973 67.7759 12.4821 67.3587 12.6525C66.9414 12.8228 66.5626 13.0752 66.2447 13.3945C65.5878 14.093 65.222 15.0158 65.222 15.9746C65.222 16.9335 65.5878 17.8562 66.2447 18.5547C66.9063 19.1909 67.7885 19.5463 68.7063 19.5463C69.6242 19.5463 70.5064 19.1909 71.168 18.5547C71.5811 18.112 71.8323 17.5425 71.8808 16.9389H68.5149V15.4899H73.3263L73.3461 15.6217C73.3859 15.8625 73.4094 16.1057 73.4161 16.3497C73.4439 16.939 73.3518 17.5277 73.1454 18.0804C72.9391 18.6331 72.6227 19.1381 72.2156 19.565C71.7593 20.0358 71.2094 20.4056 70.6013 20.6505C69.9932 20.8955 69.3404 21.0102 68.6853 20.9872ZM124.319 20.7819H122.83L118.286 13.51L118.325 14.819V20.7772H116.841V11.151H118.533L118.58 11.2245L122.854 18.074L122.815 16.7685V11.151H124.314L124.319 20.7819ZM99.3792 20.7819H97.8764V12.6H95.2689V11.151H101.982V12.6H99.3803V20.7819H99.3792ZM94.0452 20.7819H92.5459V11.151H94.0452V20.7819ZM85.6194 20.7819H84.1202V12.6H81.5127V11.151H88.2269V12.6H85.6136L85.6194 20.7819ZM80.5643 20.7667H74.8161V11.1522H80.5643V12.6012H76.3189V15.2437H80.1501V16.6775H76.3189V19.32H80.5643V20.7667ZM108.098 18.5314C108.412 18.8559 108.79 19.1126 109.208 19.2858C109.626 19.4589 110.074 19.5448 110.527 19.5382C110.979 19.5498 111.43 19.4662 111.848 19.2928C112.267 19.1193 112.644 18.8599 112.956 18.5314C113.594 17.8288 113.947 16.9138 113.947 15.9647C113.947 15.0156 113.594 14.1006 112.956 13.398C112.641 13.0738 112.263 12.8173 111.845 12.6442C111.427 12.4711 110.979 12.385 110.527 12.3912C110.074 12.3791 109.624 12.4625 109.207 12.636C108.789 12.8095 108.412 13.0691 108.101 13.398C107.463 14.1 107.108 15.0143 107.107 15.9631C107.105 16.9119 107.457 17.8273 108.093 18.5314H108.098Z" fill="white"/>
<path fill-rule="evenodd" clip-rule="evenodd" d="M105.434 34.2277C104.128 34.2314 102.852 34.6221 101.767 35.3505C100.683 36.079 99.8388 37.1126 99.3414 38.3205C98.844 39.5285 98.7157 40.8568 98.9728 42.1376C99.23 43.4185 99.8609 44.5944 100.786 45.5168C101.711 46.4392 102.889 47.0668 104.17 47.3203C105.452 47.5738 106.78 47.4419 107.986 46.9411C109.193 46.4403 110.224 45.5932 110.949 44.5067C111.675 43.4202 112.062 42.1432 112.062 40.8368C112.076 39.9634 111.914 39.0961 111.586 38.2866C111.258 37.4772 110.769 36.7421 110.151 36.1254C109.532 35.5086 108.796 35.0227 107.986 34.6966C107.175 34.3706 106.307 34.2111 105.434 34.2277ZM105.434 44.8269C104.63 44.885 103.826 44.6994 103.129 44.2945C102.431 43.8896 101.872 43.284 101.523 42.5566C101.175 41.8292 101.053 41.0137 101.175 40.2164C101.297 39.419 101.655 38.6768 102.205 38.0863C102.754 37.4958 103.469 37.0844 104.255 36.9057C105.042 36.727 105.864 36.7893 106.614 37.0845C107.365 37.3797 108.009 37.8941 108.464 38.5607C108.918 39.2272 109.161 40.0151 109.161 40.8216C109.185 41.3307 109.107 41.8395 108.932 42.3181C108.757 42.7967 108.488 43.2355 108.14 43.6086C107.793 43.9818 107.375 44.2818 106.91 44.491C106.445 44.7002 105.944 44.8144 105.434 44.8269ZM90.9674 34.2277C89.661 34.2314 88.3852 34.6221 87.3008 35.3505C86.2163 36.079 85.3721 37.1126 84.8747 38.3205C84.3773 39.5285 84.2492 40.8568 84.5063 42.1376C84.7634 43.4185 85.3943 44.5944 86.3194 45.5168C87.2444 46.4392 88.422 47.0668 89.7036 47.3203C90.9851 47.5738 92.313 47.4419 93.5196 46.9411C94.7262 46.4403 95.7573 45.5932 96.4827 44.5067C97.2081 43.4202 97.5952 42.1432 97.5953 40.8368C97.6093 39.9638 97.4476 39.0969 97.1196 38.2878C96.7915 37.4786 96.3039 36.7438 95.6859 36.1271C95.0679 35.5103 94.332 35.0243 93.5222 34.698C92.7123 34.3717 91.845 34.2117 90.9721 34.2277H90.9674ZM90.9674 44.8269C90.1629 44.885 89.3597 44.6994 88.6621 44.2945C87.9646 43.8896 87.4051 43.284 87.0567 42.5566C86.7082 41.8292 86.5868 41.0137 86.7083 40.2164C86.8299 39.419 87.1887 38.6768 87.7381 38.0863C88.2875 37.4958 89.0019 37.0844 89.7885 36.9057C90.575 36.727 91.3971 36.7893 92.1477 37.0845C92.8983 37.3797 93.5427 37.8941 93.9968 38.5607C94.451 39.2272 94.6938 40.0151 94.6938 40.8216C94.7181 41.3303 94.6404 41.8388 94.4655 42.3171C94.2906 42.7954 94.0219 43.2339 93.6753 43.607C93.3286 43.9801 92.911 44.2802 92.4468 44.4896C91.9826 44.6991 91.4812 44.8138 90.9721 44.8269H90.9674ZM73.759 36.246V39.046H80.4721C80.373 40.3559 79.8393 41.5952 78.9555 42.567C78.2843 43.2529 77.4763 43.7901 76.5841 44.1438C75.692 44.4976 74.7355 44.6599 73.7766 44.6204C71.8216 44.5858 69.9584 43.7849 68.5881 42.3901C67.2178 40.9954 66.45 39.1183 66.45 37.163C66.45 35.2077 67.2178 33.3307 68.5881 31.9359C69.9584 30.5412 71.8216 29.7403 73.7766 29.7057C75.6593 29.6834 77.4753 30.403 78.8317 31.7088L80.8152 29.7255C79.8924 28.8091 78.7956 28.0866 77.5895 27.6003C76.3833 27.114 75.0921 26.8739 73.7918 26.894C72.436 26.8795 71.0907 27.1341 69.8339 27.643C68.5771 28.1518 67.4337 28.9048 66.4698 29.8584C65.5059 30.8121 64.7407 31.9474 64.2185 33.1987C63.6963 34.45 63.4274 35.7925 63.4274 37.1484C63.4274 38.5043 63.6963 39.8468 64.2185 41.0981C64.7407 42.3494 65.5059 43.4847 66.4698 44.4384C67.4337 45.392 68.5771 46.1451 69.8339 46.6539C71.0907 47.1628 72.436 47.4173 73.7918 47.4028C75.1219 47.4579 76.4484 47.2294 77.6834 46.7326C78.9185 46.2358 80.0337 45.482 80.9552 44.5212C82.5905 42.7358 83.4633 40.3821 83.3876 37.9622C83.3949 37.3774 83.343 36.7934 83.2325 36.2191H73.7568L73.7696 36.246H73.759ZM144.144 38.423C143.748 37.2247 142.992 36.1776 141.979 35.4242C140.966 34.6708 139.746 34.2477 138.485 34.2125C137.636 34.2181 136.797 34.3958 136.018 34.7348C135.24 35.0738 134.539 35.5671 133.957 36.1849C133.374 36.8027 132.923 37.5321 132.631 38.329C132.339 39.126 132.211 39.9739 132.256 40.8216C132.236 41.6909 132.391 42.5552 132.713 43.3629C133.035 44.1706 133.516 44.905 134.129 45.5221C134.741 46.1393 135.472 46.6264 136.277 46.9544C137.082 47.2824 137.945 47.4444 138.815 47.4309C139.904 47.4375 140.977 47.1728 141.939 46.6607C142.9 46.1487 143.718 45.4053 144.32 44.4978L142.077 42.9952C141.741 43.5557 141.266 44.0191 140.696 44.3397C140.127 44.6603 139.484 44.827 138.831 44.8233C138.157 44.8487 137.491 44.6714 136.918 44.3144C136.345 43.9573 135.893 43.4368 135.619 42.8202L144.456 39.1592L144.15 38.423H144.144ZM135.134 40.6315C135.104 40.1513 135.17 39.6698 135.327 39.2153C135.485 38.7607 135.732 38.342 136.053 37.9837C136.374 37.6254 136.764 37.3346 137.198 37.1282C137.633 36.9218 138.104 36.804 138.585 36.7815C139.086 36.7476 139.586 36.8623 140.022 37.1114C140.457 37.3604 140.81 37.7327 141.035 38.1815L135.134 40.6315ZM127.956 47.0354H130.857V27.6185H127.956V47.0354ZM123.191 35.6965H123.086C122.644 35.2146 122.105 34.8328 121.504 34.5769C120.902 34.3209 120.253 34.1966 119.6 34.2125C117.899 34.2875 116.293 35.0159 115.116 36.246C113.939 37.476 113.282 39.1128 113.282 40.8152C113.282 42.5177 113.939 44.1545 115.116 45.3846C116.293 46.6146 117.899 47.343 119.6 47.418C120.255 47.4323 120.905 47.3055 121.506 47.0463C122.108 46.787 122.647 46.4013 123.086 45.9153H123.191V46.8638C123.191 49.3862 121.842 50.7454 119.67 50.7454C118.944 50.7281 118.24 50.4958 117.647 50.0779C117.054 49.66 116.598 49.0753 116.338 48.398L113.817 49.448C114.294 50.6055 115.106 51.5945 116.147 52.2893C117.189 52.984 118.414 53.3531 119.666 53.3494C123.067 53.3494 125.95 51.3462 125.95 46.466V34.6068H123.207V35.6953L123.191 35.6965ZM119.859 44.8269C118.856 44.7412 117.922 44.2823 117.241 43.541C116.56 42.7997 116.183 41.8299 116.183 40.8234C116.183 39.817 116.56 38.8472 117.241 38.1059C117.922 37.3645 118.856 36.9057 119.859 36.82C120.357 36.8442 120.845 36.9686 121.294 37.1856C121.744 37.4027 122.144 37.708 122.473 38.0833C122.802 38.4586 123.051 38.8963 123.207 39.3701C123.363 39.844 123.422 40.3444 123.38 40.8415C123.423 41.3366 123.365 41.8354 123.21 42.3075C123.054 42.7796 122.805 43.2152 122.476 43.5878C122.147 43.9605 121.746 44.2625 121.297 44.4755C120.848 44.6885 120.36 44.808 119.863 44.8269H119.859ZM157.73 27.6185H150.792V47.0342H153.693V39.6842H157.733C158.554 39.7298 159.375 39.6076 160.146 39.3251C160.918 39.0426 161.623 38.6058 162.22 38.0412C162.817 37.4766 163.293 36.7962 163.618 36.0416C163.943 35.287 164.11 34.4741 164.11 33.6525C164.11 32.8309 163.943 32.018 163.618 31.2634C163.293 30.5088 162.817 29.8284 162.22 29.2638C161.623 28.6992 160.918 28.2623 160.146 27.9798C159.375 27.6973 158.554 27.5752 157.733 27.6208L157.73 27.6185ZM157.815 36.9705H153.69V30.3077H157.815C158.258 30.2994 158.698 30.3794 159.109 30.5431C159.521 30.7068 159.895 30.9509 160.211 31.2611C160.527 31.5713 160.779 31.9413 160.95 32.3496C161.121 32.7579 161.209 33.1963 161.209 33.6391C161.209 34.0819 161.121 34.5203 160.95 34.9286C160.779 35.3369 160.527 35.7069 160.211 36.0171C159.895 36.3273 159.521 36.5713 159.109 36.735C158.698 36.8987 158.258 36.9788 157.815 36.9705ZM175.736 34.1926C174.678 34.1315 173.625 34.3795 172.705 34.9063C171.786 35.433 171.039 36.2159 170.556 37.1595L173.123 38.2293C173.378 37.7604 173.763 37.3754 174.232 37.1209C174.701 36.8664 175.234 36.7534 175.765 36.7955C176.502 36.7238 177.237 36.9468 177.81 37.4158C178.383 37.8847 178.747 38.5615 178.822 39.298V39.5033C177.89 39.0146 176.853 38.7596 175.801 38.7602C173.023 38.7602 170.206 40.2769 170.206 43.1259C170.232 43.7261 170.379 44.3149 170.637 44.8576C170.895 45.4002 171.259 45.8854 171.708 46.2846C172.157 46.6838 172.682 46.9888 173.251 47.1815C173.82 47.3742 174.422 47.4507 175.021 47.4064C175.75 47.4488 176.477 47.2951 177.126 46.9612C177.775 46.6274 178.323 46.1257 178.712 45.5082H178.817V47.0108H181.617V39.5733C181.622 36.1071 179.05 34.1926 175.736 34.1926ZM175.372 44.8269C174.423 44.8269 173.094 44.3602 173.094 43.169C173.094 41.6663 174.752 41.097 176.166 41.097C177.09 41.0684 178.004 41.2948 178.808 41.7515C178.707 42.5938 178.302 43.3704 177.67 43.9363C177.038 44.5022 176.222 44.8188 175.373 44.8269H175.372ZM191.822 34.6068L188.49 43.029H188.385L184.934 34.6068H181.812L186.992 46.3797L184.041 52.9223H187.062L195.031 34.6056L191.822 34.6068ZM165.703 47.0354H168.604V27.6185H165.703V47.0354Z" fill="white"/>
<path fill-rule="evenodd" clip-rule="evenodd" d="M15.8026 12.1358C15.2978 12.7507 15.0444 13.5338 15.0933 14.3279V48.6781C15.0371 49.47 15.2977 50.2517 15.8178 50.8516L15.9344 50.9566L35.1845 31.7066V31.2808L15.9239 12.0308L15.8026 12.1358Z" fill="url(#paint0_linear)"/>
<path fill-rule="evenodd" clip-rule="evenodd" d="M41.5848 38.1441L35.1681 31.7274V31.2736L41.5848 24.8569L41.7248 24.9421L49.3174 29.2588C51.4909 30.4826 51.4909 32.5056 49.3174 33.7446L41.7248 38.0613L41.5848 38.1441Z" fill="url(#paint1_linear)"/>
<path fill-rule="evenodd" clip-rule="evenodd" d="M41.7271 38.059L35.1693 31.5L15.8026 50.8666C16.2451 51.2552 16.8087 51.4781 17.3973 51.4973C17.9859 51.5164 18.5628 51.3306 19.0296 50.9717L41.7271 38.0602" fill="url(#paint2_linear)"/>
<path fill-rule="evenodd" clip-rule="evenodd" d="M41.7271 24.9423L19.0296 12.0495C18.5648 11.6858 17.9869 11.497 17.3971 11.5162C16.8072 11.5354 16.2428 11.7613 15.8026 12.1545L35.1693 31.5025L41.7271 24.9423Z" fill="url(#paint3_linear)"/>
<path opacity="0.2" fill-rule="evenodd" clip-rule="evenodd" d="M41.5871 37.9189L19.0448 50.7266C18.6003 51.0696 18.0554 51.257 17.4939 51.2598C16.9325 51.2625 16.3857 51.0805 15.938 50.7417L15.8213 50.8584L15.938 50.9634C16.3863 51.3008 16.9328 51.482 17.4939 51.4793C18.055 51.4766 18.5998 51.29 19.0448 50.9482L41.7423 38.0555L41.5871 37.9189Z" fill="black"/>
<path opacity="0.12" fill-rule="evenodd" clip-rule="evenodd" d="M49.3198 33.5184L41.5684 37.9167L41.7084 38.0567L49.3012 33.7401C49.7477 33.5456 50.1338 33.2348 50.4193 32.8402C50.7047 32.4456 50.8791 31.9816 50.924 31.4966C50.8384 31.9376 50.6479 32.3514 50.3687 32.7033C50.0895 33.0552 49.7298 33.3348 49.3198 33.5184Z" fill="black"/>
<path opacity="0.25" fill-rule="evenodd" clip-rule="evenodd" d="M19.0296 12.2746L49.3198 29.4829C49.7302 29.6676 50.0912 29.9467 50.3732 30.2975C50.6553 30.6482 50.8504 31.0607 50.9426 31.5012C50.8977 31.0163 50.7234 30.5523 50.438 30.1576C50.1525 29.763 49.7663 29.4522 49.3198 29.2577L19.0296 12.0494C16.8561 10.8057 15.0933 11.8441 15.0933 14.3268V14.5519C15.0933 12.0658 16.8561 11.0496 19.0296 12.2746Z" fill="white"/>
</g>
<defs>
<linearGradient id="paint0_linear" x1="64.7697" y1="52.319" x2="62.4215" y2="51.9913" gradientUnits="userSpaceOnUse">
<stop stop-color="#00A0FF"/>
<stop offset="0.007" stop-color="#00A1FF"/>
<stop offset="0.26" stop-color="#00BEFF"/>
<stop offset="0.512" stop-color="#00D2FF"/>
<stop offset="0.76" stop-color="#00DFFF"/>
<stop offset="1" stop-color="#00E3FF"/>
</linearGradient>
<linearGradient id="paint1_linear" x1="65.938" y1="49.8235" x2="61.8354" y2="49.8235" gradientUnits="userSpaceOnUse">
<stop stop-color="#FFE000"/>
<stop offset="0.409" stop-color="#FFBD00"/>
<stop offset="0.775" stop-color="#FFA500"/>
<stop offset="1" stop-color="#FF9C00"/>
</linearGradient>
<linearGradient id="paint2_linear" x1="65.7332" y1="50.4187" x2="64.1632" y2="46.9968" gradientUnits="userSpaceOnUse">
<stop stop-color="#FF3A44"/>
<stop offset="1" stop-color="#C31162"/>
</linearGradient>
<linearGradient id="paint3_linear" x1="63.9185" y1="53.3489" x2="64.6269" y2="51.825" gradientUnits="userSpaceOnUse">
<stop stop-color="#32A071"/>
<stop offset="0.068" stop-color="#2DA771"/>
<stop offset="0.476" stop-color="#15CF74"/>
<stop offset="0.801" stop-color="#06E775"/>
<stop offset="1" stop-color="#00F076"/>
</linearGradient>
<clipPath id="clip0">
<rect width="210" height="64.1667" fill="white"/>
</clipPath>
</defs>
</svg>
