<svg width="464" height="464" viewBox="0 0 464 464" fill="none" xmlns="http://www.w3.org/2000/svg">
<rect width="464" height="464" rx="64" fill="#43D3AB"/>
<path opacity="0.07" d="M346.467 223.854C356.957 214.856 363.413 198.112 363.413 175.517C363.413 129.117 336.219 75.7775 302.73 56.8141C269.201 37.8103 242.49 60.0822 242.813 106.845C242.975 129.077 249.35 152.923 259.638 173.661C267.587 189.639 272.792 207.473 274.527 224.056C275.213 231.157 279.449 238.5 284.331 241.325L321.774 262.911C326.696 265.775 330.893 263.193 331.659 256.939C333.354 242.374 338.478 230.754 346.467 223.854Z" fill="url(#paint0_linear)"/>
<path opacity="0.07" d="M330.933 300.515V290.589C330.933 285.263 327.866 279.252 324.033 276.952L281.991 252.662C278.158 250.443 275.091 252.945 275.091 258.271V268.196C275.091 276.185 279.288 285.062 284.775 289.419L321.33 310.521C326.737 312.579 330.933 308.423 330.933 300.515Z" fill="url(#paint1_linear)"/>
<path opacity="0.4" d="M326.252 239.913C336.743 230.915 343.199 214.171 343.199 191.576C343.199 145.176 316.004 91.836 282.515 72.8726C248.946 53.8687 222.276 76.1407 222.599 122.904C222.76 145.136 229.135 168.981 239.424 189.72C247.373 205.698 252.577 223.531 254.312 240.114C254.998 247.216 259.235 254.559 264.117 257.383L301.56 278.969C306.482 281.834 310.678 279.252 311.445 272.998C313.18 258.432 318.304 246.772 326.252 239.913Z" fill="url(#paint2_linear)"/>
<path opacity="0.4" d="M310.759 316.573V306.648C310.759 301.322 307.692 295.31 303.859 293.01L261.817 268.721C257.984 266.502 254.917 269.003 254.917 274.329V284.255C254.917 292.244 259.114 301.12 264.601 305.478L301.156 326.58C306.563 328.637 310.759 324.481 310.759 316.573Z" fill="url(#paint3_linear)"/>
<path opacity="0.3" d="M222.438 320.043L102.362 250.726L102.403 313.305L211.866 376.49L222.478 392.185L222.438 320.043Z" fill="url(#paint4_linear)"/>
<path d="M89.5722 275.136V258.15L134.923 284.295V301.281L89.5722 275.136Z" fill="#F2994A"/>
<path opacity="0.15" d="M191.571 317.461L165.265 302.29V307.778L191.571 322.948V317.461Z" fill="white"/>
<path opacity="0.15" d="M191.572 328.476L140.854 299.224V304.711L191.572 333.963V328.476Z" fill="white"/>
<path opacity="0.15" d="M191.571 339.451L130.122 303.985V309.472L191.571 344.938V339.451Z" fill="white"/>
<path d="M198.067 326.943C198.067 332.107 201.134 338.038 204.886 340.217C208.639 342.396 211.705 339.975 211.705 334.81C211.705 329.646 208.639 323.715 204.886 321.536C201.094 319.357 198.067 321.778 198.067 326.943Z" fill="#F2994A"/>
<path opacity="0.3" d="M231.798 282.399L351.833 351.716L351.873 414.296L242.41 351.111L231.839 354.581L231.798 282.399Z" fill="url(#paint5_linear)"/>
<path d="M316.932 362.731V345.745L362.243 371.89V388.877L316.932 362.731Z" fill="#F2C94C"/>
<path opacity="0.15" d="M262.664 315.484L288.971 330.655V336.142L262.664 320.971V315.484Z" fill="white"/>
<path opacity="0.15" d="M262.664 326.458L310.154 353.855V359.342L262.664 331.986V326.458Z" fill="white"/>
<path opacity="0.15" d="M262.664 337.474L324.114 372.939V378.427L262.664 342.961V337.474Z" fill="white"/>
<path d="M256.168 317.461C256.168 322.626 253.102 325.046 249.35 322.868C245.597 320.689 242.531 314.758 242.531 309.593C242.531 304.429 245.597 302.008 249.35 304.187C253.142 306.365 256.168 312.297 256.168 317.461Z" fill="#F2C94C"/>
<path opacity="0.15" d="M365.753 277.153L368.779 283.851L343.279 289.782L369.788 326.701L366.762 329.888L334.201 284.497L365.753 277.153Z" fill="white"/>
<path d="M374.186 284.658C374.186 289.863 371.119 292.324 367.367 290.186C363.615 288.007 360.548 282.036 360.548 276.79C360.548 271.585 363.615 269.124 367.367 271.263C371.119 273.441 374.186 279.453 374.186 284.658Z" fill="#F2994A"/>
<path d="M374.186 330.897C374.186 336.102 371.119 338.563 367.367 336.424C363.615 334.246 360.548 328.274 360.548 323.029C360.548 317.824 363.615 315.363 367.367 317.501C371.119 319.72 374.186 325.692 374.186 330.897Z" fill="#F2994A"/>
<path d="M345.095 290.388C345.095 295.593 342.029 298.054 338.276 295.915C334.524 293.737 331.457 287.765 331.457 282.52C331.457 277.315 334.524 274.854 338.276 276.992C342.029 279.171 345.095 285.183 345.095 290.388Z" fill="#F2C94C"/>
<path opacity="0.3" d="M154.855 152.196L222.478 191.213V316.493L154.855 277.476V152.196Z" fill="url(#paint6_linear)"/>
<path opacity="0.15" d="M161.512 226.557L215.82 257.908V263.395L161.512 232.045V226.557Z" fill="white"/>
<path opacity="0.15" d="M165.305 239.469L211.988 266.421V271.908L165.305 244.956V239.469Z" fill="white"/>
<path d="M185.035 261.862L137.99 234.708V248.708L185.035 275.862V261.862Z" fill="#F2C94C"/>
<path d="M196.373 201.461C196.373 207.513 192.863 210.378 188.545 207.876C184.228 205.334 180.718 198.395 180.718 192.302C180.718 186.25 184.228 183.385 188.545 185.887C192.863 188.429 196.373 195.409 196.373 201.461Z" fill="#F2C94C"/>
<path d="M188.505 212.758C181.525 208.683 175.755 212.516 174.746 221.272C174.585 222.805 175.715 224.822 177.127 225.629L199.883 238.944C201.295 239.751 202.425 239.106 202.264 237.371C201.295 227.364 195.485 216.834 188.505 212.758Z" fill="#F2C94C"/>
<path opacity="0.2" d="M254.191 406.791C229.781 375.4 247.453 364.022 254.191 382.421C260.929 371.85 278.602 403.563 254.191 406.791Z" fill="url(#paint7_linear)"/>
<defs>
<linearGradient id="paint0_linear" x1="350.448" y1="109.072" x2="226.965" y2="221.503" gradientUnits="userSpaceOnUse">
<stop stop-color="white"/>
<stop offset="1" stop-color="white" stop-opacity="0"/>
</linearGradient>
<linearGradient id="paint1_linear" x1="414.35" y1="179.235" x2="290.867" y2="291.666" gradientUnits="userSpaceOnUse">
<stop stop-color="white"/>
<stop offset="1" stop-color="white" stop-opacity="0"/>
</linearGradient>
<linearGradient id="paint2_linear" x1="330.266" y1="125.122" x2="206.784" y2="237.553" gradientUnits="userSpaceOnUse">
<stop stop-color="white"/>
<stop offset="1" stop-color="white" stop-opacity="0"/>
</linearGradient>
<linearGradient id="paint3_linear" x1="394.168" y1="195.285" x2="270.686" y2="307.716" gradientUnits="userSpaceOnUse">
<stop stop-color="white"/>
<stop offset="1" stop-color="white" stop-opacity="0"/>
</linearGradient>
<linearGradient id="paint4_linear" x1="196.255" y1="294.978" x2="134.261" y2="343.518" gradientUnits="userSpaceOnUse">
<stop stop-color="white"/>
<stop offset="1" stop-color="white" stop-opacity="0"/>
</linearGradient>
<linearGradient id="paint5_linear" x1="283.358" y1="284.437" x2="298.88" y2="410.335" gradientUnits="userSpaceOnUse">
<stop stop-color="white"/>
<stop offset="1" stop-color="white" stop-opacity="0"/>
</linearGradient>
<linearGradient id="paint6_linear" x1="229.708" y1="163.238" x2="169.684" y2="267.23" gradientUnits="userSpaceOnUse">
<stop stop-color="white"/>
<stop offset="1" stop-color="white" stop-opacity="0"/>
</linearGradient>
<linearGradient id="paint7_linear" x1="259.345" y1="383.632" x2="241.284" y2="399.234" gradientUnits="userSpaceOnUse">
<stop stop-color="white"/>
<stop offset="1" stop-color="white" stop-opacity="0"/>
</linearGradient>
</defs>
</svg>
