<svg width="27" height="26" viewBox="0 0 27 26" fill="none" xmlns="http://www.w3.org/2000/svg">
<path d="M13.0045 6.32979C11.6859 6.32979 10.3968 6.72082 9.30037 7.45343C8.20394 8.18605 7.34937 9.22734 6.84474 10.4456C6.3401 11.6639 6.20807 13.0045 6.46533 14.2978C6.72259 15.5912 7.35759 16.7792 8.29003 17.7116C9.22247 18.6441 10.4105 19.2791 11.7038 19.5363C12.9971 19.7936 14.3377 19.6615 15.556 19.1569C16.7743 18.6523 17.8156 17.7977 18.5482 16.7013C19.2808 15.6048 19.6719 14.3158 19.6719 12.9971C19.6733 12.1211 19.5018 11.2535 19.1672 10.444C18.8327 9.63441 18.3416 8.89885 17.7222 8.27945C17.1028 7.66005 16.3672 7.16899 15.5577 6.83443C14.7481 6.49987 13.8805 6.32838 13.0045 6.32979ZM13.0045 17.3314C12.1473 17.3314 11.3093 17.0772 10.5965 16.6009C9.88376 16.1247 9.32823 15.4478 9.00017 14.6558C8.67212 13.8638 8.58629 12.9923 8.75353 12.1515C8.92077 11.3108 9.33357 10.5385 9.93973 9.9323C10.5459 9.32614 11.3182 8.91334 12.159 8.7461C12.9997 8.57886 13.8712 8.66469 14.6632 8.99274C15.4552 9.3208 16.1321 9.87633 16.6084 10.5891C17.0846 11.3019 17.3388 12.1399 17.3388 12.9971C17.3367 14.146 16.8793 15.2471 16.0669 16.0595C15.2546 16.8719 14.1534 17.3292 13.0045 17.3314ZM21.4998 6.05745C21.4998 6.36493 21.4087 6.6655 21.2379 6.92117C21.067 7.17683 20.8243 7.37612 20.5402 7.49382C20.2562 7.61152 19.9436 7.64236 19.642 7.58244C19.3404 7.52251 19.0634 7.37451 18.8459 7.15715C18.6284 6.93979 18.4803 6.66283 18.4202 6.36128C18.3601 6.05974 18.3908 5.74714 18.5083 5.46303C18.6259 5.17891 18.825 4.93603 19.0806 4.76508C19.3362 4.59414 19.6367 4.50281 19.9442 4.50265C20.1486 4.50211 20.351 4.54194 20.54 4.61988C20.7289 4.69781 20.9006 4.8123 21.0451 4.95678C21.1897 5.10125 21.3042 5.27286 21.3823 5.46175C21.4603 5.65064 21.5003 5.85308 21.4998 6.05745ZM25.9142 7.63866C25.9566 5.61769 25.2022 3.66118 23.8139 2.19191C22.3416 0.808341 20.3871 0.0546706 18.3671 0.0916045C16.2214 -0.0305348 9.78435 -0.0305348 7.63866 0.0916045C5.61925 0.0518806 3.6644 0.803609 2.19191 2.18613C0.805991 3.6569 0.0519369 5.6124 0.0916045 7.63288C-0.0305348 9.77857 -0.0305348 16.2156 0.0916045 18.3613C0.0491822 20.3823 0.803625 22.3388 2.19191 23.8081C3.66477 25.1907 5.61886 25.9442 7.63866 25.9084C9.78435 26.0305 16.2214 26.0305 18.3671 25.9084C20.3881 25.9508 22.3446 25.1964 23.8139 23.8081C25.1974 22.3358 25.9511 20.3813 25.9142 18.3613C26.0363 16.2156 26.0363 9.78518 25.9142 7.63783V7.63866ZM23.1421 20.6622C22.9214 21.2227 22.5877 21.7317 22.1618 22.1577C21.7359 22.5836 21.2268 22.9173 20.6663 23.138C18.9547 23.8172 14.8894 23.6604 13.0012 23.6604C11.113 23.6604 7.04199 23.8114 5.33617 23.138C4.77568 22.9173 4.26662 22.5836 3.84068 22.1577C3.41475 21.7317 3.08105 21.2227 2.86037 20.6622C2.18118 18.9506 2.33798 14.8853 2.33798 12.9971C2.33798 11.1089 2.18695 7.03787 2.86037 5.33204C3.08105 4.77155 3.41475 4.2625 3.84068 3.83656C4.26662 3.41062 4.77568 3.07692 5.33617 2.85625C7.04777 2.17705 11.113 2.33385 13.0012 2.33385C14.8894 2.33385 18.9605 2.18283 20.6663 2.85625C21.2268 3.07692 21.7359 3.41062 22.1618 3.83656C22.5877 4.2625 22.9214 4.77155 23.1421 5.33204C23.8213 7.04364 23.6645 11.1089 23.6645 12.9971C23.6645 14.8853 23.8205 18.9564 23.1421 20.6622Z" fill="white"/>
</svg>
