<svg width="27" height="26" viewBox="0 0 27 26" fill="none" xmlns="http://www.w3.org/2000/svg">
<path d="M3.16246 6.32492C4.90904 6.32492 6.32492 4.90904 6.32492 3.16246C6.32492 1.41588 4.90904 0 3.16246 0C1.41588 0 0 1.41588 0 3.16246C0 4.90904 1.41588 6.32492 3.16246 6.32492Z" fill="white"/>
<path d="M9.31104 8.45338V25.9987H14.7586V17.3222C14.7586 15.0327 15.1893 12.8155 18.028 12.8155C20.8277 12.8155 20.8624 15.4331 20.8624 17.4667V26.0001H26.3129V16.3783C26.3129 11.652 25.2953 8.01978 19.7712 8.01978C17.1189 8.01978 15.3411 9.47526 14.6141 10.8527H14.5404V8.45338H9.31104ZM0.433594 8.45338H5.88985V25.9987H0.433594V8.45338Z" fill="white"/>
</svg>
