<svg width="104" height="36" viewBox="0 0 104 36" fill="none" xmlns="http://www.w3.org/2000/svg">
<path d="M61.9938 17.8014V14.463H57.2809V7.40918L53.5388 8.163V22.6203C53.5376 23.6877 53.7469 24.7449 54.1547 25.7314C54.5626 26.7178 55.161 27.6141 55.9157 28.369C56.6704 29.1239 57.5666 29.7226 58.5529 30.1307C59.5392 30.5388 60.5964 30.7484 61.6638 30.7475C61.6844 30.7475 61.704 30.7449 61.7246 30.7447V27.1878C61.704 27.188 61.6844 27.1905 61.6638 27.1905C60.5045 27.1926 59.3917 26.7344 58.5699 25.9166C57.7481 25.0988 57.2845 23.9883 57.2809 22.8289V17.8014H61.9938Z" fill="white"/>
<path d="M34.5042 14.4997H38.2464V23.2059C38.2508 24.3655 38.7146 25.4761 39.5362 26.2945C40.3578 27.1129 41.4701 27.5724 42.6298 27.5724C43.7894 27.5724 44.9018 27.1129 45.7234 26.2945C46.5449 25.4761 47.0087 24.3655 47.0132 23.2059V14.4997H50.7553V22.9972C50.755 24.6044 50.2783 26.1755 49.3854 27.5118C48.4925 28.8481 47.2234 29.8898 45.7387 30.5051C44.2539 31.1204 42.6201 31.2817 41.0437 30.9688C39.4673 30.6558 38.019 29.8825 36.8819 28.7467C36.1138 28.0017 35.5065 27.1071 35.0976 26.1183C34.6886 25.1294 34.4867 24.0672 34.5042 22.9972L34.5042 14.4997Z" fill="white"/>
<path d="M76.3276 30.7383H72.5844V8.09742L76.3276 7.34818V30.7383Z" fill="white"/>
<path d="M83.3911 7.68923C83.6039 7.90017 83.7728 8.15117 83.888 8.42774C84.0033 8.70431 84.0627 9.00098 84.0627 9.30061C84.0627 9.60024 84.0033 9.8969 83.888 10.1735C83.7728 10.45 83.6039 10.7011 83.3911 10.912C83.0734 11.2308 82.6682 11.4479 82.2268 11.5358C81.7855 11.6237 81.3279 11.5784 80.9124 11.4057C80.4968 11.233 80.142 10.9407 79.8929 10.5659C79.6439 10.191 79.5119 9.75063 79.5138 9.30061C79.5131 8.85111 79.6457 8.4115 79.895 8.03741C80.1442 7.66332 80.4988 7.37157 80.9139 7.19906C81.3289 7.02655 81.7859 6.98105 82.2268 7.0683C82.6678 7.15555 83.073 7.37164 83.3911 7.68923ZM79.948 14.4861H83.6912V30.7383H79.948V14.4861Z" fill="white"/>
<path d="M68.4364 7.68923C68.6492 7.90017 68.8181 8.15117 68.9333 8.42774C69.0486 8.70431 69.108 9.00098 69.108 9.30061C69.108 9.60024 69.0486 9.8969 68.9333 10.1735C68.8181 10.45 68.6492 10.7011 68.4364 10.912C68.1187 11.2308 67.7135 11.4479 67.2721 11.5358C66.8308 11.6237 66.3732 11.5784 65.9577 11.4057C65.5421 11.233 65.1873 10.9407 64.9382 10.5659C64.6892 10.191 64.5572 9.75063 64.559 9.30061C64.5584 8.85111 64.691 8.4115 64.9402 8.03741C65.1895 7.66332 65.5441 7.37157 65.9592 7.19906C66.3742 7.02655 66.8312 6.98105 67.2721 7.0683C67.7131 7.15555 68.1183 7.37164 68.4364 7.68923ZM64.9933 14.4861H68.7365V30.7383H64.9933V14.4861Z" fill="white"/>
<path d="M103.561 14.4861L97.4199 22.6132L103.561 30.7383H99.0739L95.0635 25.1335L91.0723 30.7383H86.5862L92.7263 22.6132L86.5862 14.4861H91.0723L95.0635 20.0886L99.0739 14.4861H103.561Z" fill="white"/>
<path d="M15.0162 0.00174073C15.0157 0.00118534 15.015 0.000745418 15.0143 0.00044658C15.0136 0.000147741 15.0128 -4.0387e-06 15.012 8.16962e-08C15.0112 4.20209e-06 15.0104 0.00016414 15.0097 0.00047058C15.009 0.000777019 15.0084 0.00122384 15.0078 0.001785L12.6686 2.40814L23.4628 13.2642V22.9048C23.354 25.5065 22.2426 27.9652 20.3613 29.7657C18.4801 31.5662 15.975 32.5687 13.371 32.5632C10.767 32.5578 8.26616 31.5447 6.3925 29.7363C4.51884 27.9279 3.41777 25.4645 3.32 22.8624C3.32 22.8624 3.31837 16.7987 3.31893 16.7973C3.31893 16.7973 10.6083 9.28564 10.6106 9.28803L17.1381 16.0168V22.4261C17.1349 23.4607 16.7211 24.4518 15.9876 25.1815C15.2542 25.9112 14.261 26.3199 13.2264 26.3178C12.1919 26.3197 11.199 25.9108 10.4658 25.1811C9.73249 24.4515 9.31883 23.4606 9.31563 22.4261V14.6578L5.97657 18.0263V22.24C5.96092 23.1946 6.1411 24.1424 6.50599 25.0248C6.87089 25.9071 7.41275 26.7053 8.09814 27.3701C8.76255 28.0554 9.56041 28.5973 10.4424 28.9622C11.3245 29.3271 12.272 29.5073 13.2264 29.4917C14.1809 29.5073 15.1286 29.3271 16.0108 28.9622C16.8929 28.5973 17.691 28.0555 18.3556 27.3701C19.0408 26.7052 19.5825 25.907 19.9474 25.0246C20.3123 24.1423 20.4926 23.1946 20.4771 22.24L20.4778 14.6583L10.6119 4.4857L0.00859127 15.4275L0 22.8901C0.163843 26.3347 1.64716 29.5841 4.14237 31.9645C6.63757 34.3449 9.95322 35.6737 13.4017 35.6752C16.8503 35.6767 20.1671 34.3509 22.6644 31.9727C25.1617 29.5945 26.6479 26.3464 26.8148 22.9019L26.8193 11.8966L15.0162 0.00174073Z" fill="white"/>
</svg>
