<svg width="50" height="42" viewBox="0 0 50 42" fill="none" xmlns="http://www.w3.org/2000/svg">
<path d="M20.248 0H29.8111C30.7892 0 31.5821 0.792897 31.5821 1.77096V39.5337C31.5821 40.5118 30.7892 41.3047 29.8111 41.3047H20.248C19.2699 41.3047 18.477 40.5118 18.477 39.5337V1.77096C18.477 0.792782 19.2699 0 20.248 0Z" fill="#43D3AB"/>
<path d="M1.77096 22.0189H11.3341C12.3122 22.0189 13.1051 22.8118 13.1051 23.7899V39.5456C13.1051 40.5236 12.3122 41.3165 11.3341 41.3165H1.77096C0.792895 41.3165 -2.86102e-06 40.5236 -2.86102e-06 39.5456V23.7899C-2.86102e-06 22.8117 0.792895 22.0189 1.77096 22.0189Z" fill="#43D3AB"/>
<path d="M38.6659 14.1088H48.229C49.2071 14.1088 50 14.9017 50 15.8797V39.5221C50 40.5001 49.2071 41.293 48.229 41.293H38.6659C37.6878 41.293 36.8949 40.5001 36.8949 39.5221V15.8797C36.8949 14.9017 37.6878 14.1088 38.6659 14.1088Z" fill="#43D3AB"/>
</svg>
