<svg width="54" height="54" viewBox="0 0 54 54" fill="none" xmlns="http://www.w3.org/2000/svg">
<path d="M36.2812 18.5625C40.0092 18.5625 43.0312 15.5404 43.0312 11.8125C43.0312 8.08458 40.0092 5.0625 36.2812 5.0625C32.5533 5.0625 29.5312 8.08458 29.5312 11.8125C29.5312 15.5404 32.5533 18.5625 36.2812 18.5625Z" fill="#43D3AB"/>
<path d="M17.7188 21.9375C21.4467 21.9375 24.4688 18.9154 24.4688 15.1875C24.4688 11.4596 21.4467 8.4375 17.7188 8.4375C13.9908 8.4375 10.9688 11.4596 10.9688 15.1875C10.9688 18.9154 13.9908 21.9375 17.7188 21.9375Z" fill="#43D3AB"/>
<path d="M29.7153 30.8906C27.1467 26.3215 22.7293 23.625 17.7188 23.625C13.827 23.625 10.237 25.2584 7.61139 28.2244C4.97551 31.2018 3.48229 35.3653 3.38062 39.9927C5.08362 40.8599 11.4557 43.875 17.7188 43.875C19.5516 43.8666 21.3787 43.6689 23.171 43.2852C22.4535 40.774 22.7338 38.0827 23.9532 35.7732C25.1726 33.4637 27.237 31.7145 29.7153 30.8906Z" fill="#43D3AB"/>
<path d="M32.9062 32.0625C31.2375 32.0625 29.6062 32.5573 28.2186 33.4845C26.8311 34.4116 25.7496 35.7294 25.111 37.2711C24.4724 38.8129 24.3053 40.5094 24.6309 42.1461C24.9564 43.7828 25.76 45.2862 26.94 46.4662C28.12 47.6462 29.6235 48.4498 31.2602 48.7754C32.8969 49.1009 34.5934 48.9338 36.1351 48.2952C37.6769 47.6566 38.9946 46.5751 39.9218 45.1876C40.8489 43.8001 41.3437 42.1688 41.3437 40.5C41.3412 38.263 40.4514 36.1184 38.8696 34.5366C37.2879 32.9548 35.1432 32.065 32.9062 32.0625ZM37.125 41.3437H33.75V44.7187C33.75 44.9425 33.6611 45.1571 33.5029 45.3154C33.3446 45.4736 33.13 45.5625 32.9062 45.5625C32.6825 45.5625 32.4679 45.4736 32.3096 45.3154C32.1514 45.1571 32.0625 44.9425 32.0625 44.7187V41.3437H28.6875C28.4637 41.3437 28.2491 41.2548 28.0909 41.0966C27.9326 40.9384 27.8438 40.7238 27.8438 40.5C27.8438 40.2762 27.9326 40.0616 28.0909 39.9034C28.2491 39.7451 28.4637 39.6562 28.6875 39.6562H32.0625V36.2812C32.0625 36.0575 32.1514 35.8429 32.3096 35.6846C32.4679 35.5264 32.6825 35.4375 32.9062 35.4375C33.13 35.4375 33.3446 35.5264 33.5029 35.6846C33.6611 35.8429 33.75 36.0575 33.75 36.2812V39.6562H37.125C37.3488 39.6562 37.5634 39.7451 37.7216 39.9034C37.8798 40.0616 37.9687 40.2762 37.9687 40.5C37.9687 40.7238 37.8798 40.9384 37.7216 41.0966C37.5634 41.2548 37.3488 41.3437 37.125 41.3437Z" fill="#43D3AB"/>
<path d="M36.2812 20.25C32.4547 20.25 28.9648 21.8053 26.3559 24.6489C28.406 26.0889 30.1392 28.0649 31.4155 30.485C32.7817 30.282 34.1749 30.3606 35.5095 30.7159C36.8441 31.0712 38.092 31.6958 39.1763 32.5512C40.2606 33.4066 41.1585 34.4748 41.8148 35.69C42.471 36.9053 42.8717 38.2419 42.9923 39.6178C45.6467 38.9388 48.2082 37.9382 50.6199 36.6383C50.5222 32.0023 49.0284 27.8316 46.3886 24.8494C43.763 21.8834 40.173 20.25 36.2812 20.25Z" fill="#43D3AB"/>
</svg>
